<svg width="24.000000" height="26.666748" viewBox="0 0 24 26.6667" fill="none" xmlns="http://www.w3.org/2000/svg" xmlns:xlink="http://www.w3.org/1999/xlink">

	<defs/>
	<path id="Vector" d="M17.33 16L6.66 16C6.31 16 5.97 16.14 5.72 16.39C5.47 16.64 5.33 16.97 5.33 17.33C5.33 17.68 5.47 18.02 5.72 18.27C5.97 18.52 6.31 18.66 6.66 18.66L17.33 18.66C17.68 18.66 18.02 18.52 18.27 18.27C18.52 18.02 18.66 17.68 18.66 17.33C18.66 16.97 18.52 16.64 18.27 16.39C18.02 16.14 17.68 16 17.33 16ZM17.33 10.66L9.33 10.66C8.97 10.66 8.64 10.8 8.39 11.05C8.14 11.3 8 11.64 8 12C8 12.35 8.14 12.69 8.39 12.94C8.64 13.19 8.97 13.33 9.33 13.33L17.33 13.33C17.68 13.33 18.02 13.19 18.27 12.94C18.52 12.69 18.66 12.35 18.66 12C18.66 11.64 18.52 11.3 18.27 11.05C18.02 10.8 17.68 10.66 17.33 10.66ZM22.66 2.66L18.66 2.66L18.66 1.33C18.66 0.97 18.52 0.64 18.27 0.39C18.02 0.14 17.68 0 17.33 0C16.97 0 16.64 0.14 16.39 0.39C16.14 0.64 16 0.97 16 1.33L16 2.66L13.33 2.66L13.33 1.33C13.33 0.97 13.19 0.64 12.94 0.39C12.69 0.14 12.35 0 12 0C11.64 0 11.3 0.14 11.05 0.39C10.8 0.64 10.66 0.97 10.66 1.33L10.66 2.66L8 2.66L8 1.33C8 0.97 7.85 0.64 7.6 0.39C7.35 0.14 7.02 0 6.66 0C6.31 0 5.97 0.14 5.72 0.39C5.47 0.64 5.33 0.97 5.33 1.33L5.33 2.66L1.33 2.66C0.97 2.66 0.64 2.8 0.39 3.05C0.14 3.3 0 3.64 0 4L0 22.66C0 23.72 0.42 24.74 1.17 25.49C1.92 26.24 2.93 26.66 4 26.66L20 26.66C21.06 26.66 22.07 26.24 22.82 25.49C23.57 24.74 24 23.72 24 22.66L24 4C24 3.64 23.85 3.3 23.6 3.05C23.35 2.8 23.02 2.66 22.66 2.66ZM21.33 22.66C21.33 23.02 21.19 23.35 20.94 23.6C20.69 23.85 20.35 24 20 24L4 24C3.64 24 3.3 23.85 3.05 23.6C2.8 23.35 2.66 23.02 2.66 22.66L2.66 5.33L5.33 5.33L5.33 6.66C5.33 7.02 5.47 7.35 5.72 7.6C5.97 7.85 6.31 8 6.66 8C7.02 8 7.35 7.85 7.6 7.6C7.85 7.35 8 7.02 8 6.66L8 5.33L10.66 5.33L10.66 6.66C10.66 7.02 10.8 7.35 11.05 7.6C11.3 7.85 11.64 8 12 8C12.35 8 12.69 7.85 12.94 7.6C13.19 7.35 13.33 7.02 13.33 6.66L13.33 5.33L16 5.33L16 6.66C16 7.02 16.14 7.35 16.39 7.6C16.64 7.85 16.97 8 17.33 8C17.68 8 18.02 7.85 18.27 7.6C18.52 7.35 18.66 7.02 18.66 6.66L18.66 5.33L21.33 5.33L21.33 22.66Z" fill="#FFFFFF" fill-opacity="1.000000" fill-rule="nonzero"/>
</svg>
